<?xml version="1.0" standalone="no"?>
<!DOCTYPE svg PUBLIC "-//W3C//DTD SVG 20010904//EN"
 "http://www.w3.org/TR/2001/REC-SVG-20010904/DTD/svg10.dtd">
<svg version="1.0" xmlns="http://www.w3.org/2000/svg"
 width="616.000000pt" height="627.000000pt" viewBox="0 0 616.000000 627.000000"
 preserveAspectRatio="xMidYMid meet">

<g transform="translate(0.000000,627.000000) scale(0.100000,-0.100000)"
fill="#000000" stroke="none">
<path d="M815 6249 c-196 -23 -413 -127 -547 -262 -122 -122 -192 -240 -235
-392 l-28 -100 0 -2370 0 -2370 23 -85 c67 -253 224 -446 457 -563 103 -51
193 -76 318 -87 71 -6 943 -8 2347 -7 2469 3 2291 -1 2451 66 40 17 77 28 82
24 6 -4 7 -1 2 7 -6 10 -3 12 13 8 12 -4 20 -3 17 2 -2 4 21 24 53 43 60 38
149 119 194 177 59 75 78 104 78 118 0 7 5 10 12 6 6 -4 8 -3 5 3 -4 6 4 36
18 66 14 30 35 92 48 138 l22 84 0 2365 c0 2230 -1 2369 -18 2440 -41 172
-130 334 -248 446 -111 105 -226 171 -386 221 l-88 28 -2260 1 c-1243 1 -2291
-2 -2330 -7z m4540 -434 c164 -43 305 -175 352 -330 17 -57 18 -143 18 -1690
l0 -1630 -2657 -3 -2658 -2 0 1624 c0 1620 0 1624 21 1692 42 137 124 238 244
298 112 57 -31 54 2385 55 1977 1 2243 -1 2295 -14z m-2158 -4079 l28 -24 0
-462 0 -462 -24 -19 c-36 -29 -115 -26 -147 6 l-25 25 -29 -20 c-42 -30 -117
-43 -174 -30 -62 14 -79 23 -133 73 -141 129 -145 375 -10 510 80 80 192 100
295 52 l52 -24 0 179 0 179 26 20 c38 30 104 28 141 -3z m380 -11 c22 -25 23
-34 23 -194 l0 -168 47 23 c33 17 63 24 105 24 104 0 180 -48 228 -143 l30
-60 0 -209 c0 -195 -1 -209 -20 -228 -28 -28 -118 -28 -151 -1 -23 19 -24 25
-26 173 -2 84 -3 170 -3 191 0 87 -109 130 -179 71 l-31 -26 0 -188 c0 -174
-1 -189 -21 -214 -17 -22 -28 -26 -70 -26 -50 0 -87 13 -101 34 -9 14 -11 908
-2 931 19 49 132 56 171 10z m1448 4 c18 -18 20 -32 18 -194 -1 -96 1 -175 3
-175 3 0 19 10 35 23 26 19 43 22 112 22 71 0 88 -4 129 -27 182 -107 218
-382 71 -539 -86 -92 -220 -120 -316 -67 -34 20 -47 23 -47 13 0 -38 -120 -49
-161 -16 l-24 19 -3 444 c-2 407 -1 446 15 478 10 20 29 38 43 42 38 11 103
-1 125 -23z m-3838 -22 c38 -37 40 -109 4 -138 -20 -17 -40 -19 -162 -19
l-139 0 0 -105 0 -105 86 0 c81 0 87 -1 115 -29 39 -39 40 -92 3 -126 -23 -21
-37 -25 -116 -27 l-91 -3 -1 -181 c-1 -217 -4 -224 -93 -224 -44 0 -58 5 -78
25 l-25 24 0 451 c0 441 0 450 21 471 19 19 29 20 234 17 l215 -3 27 -28z
m420 -309 c80 -29 162 -112 192 -193 48 -126 12 -287 -82 -372 -67 -60 -139
-87 -232 -87 -93 0 -165 27 -232 87 -129 117 -142 329 -30 470 83 106 247 147
384 95z m720 0 c79 -29 162 -112 191 -191 63 -167 -5 -349 -159 -426 -212
-106 -448 17 -490 257 -27 151 76 320 224 367 67 21 168 18 234 -7z m1967 1
l26 -20 0 -162 c1 -180 8 -228 41 -263 27 -29 87 -33 124 -8 38 25 45 65 45
253 0 97 4 181 8 187 21 32 98 44 145 23 46 -21 48 -36 45 -343 -3 -330 1
-316 -95 -316 -44 0 -57 4 -74 24 l-21 24 -42 -24 c-128 -72 -285 -15 -349
125 -19 41 -22 68 -25 252 -4 219 0 242 41 259 41 16 103 11 131 -11z"/>
<path d="M2991 5524 c-19 -25 -21 -40 -21 -199 l0 -173 31 -26 c40 -34 64 -33
100 4 l30 30 -3 174 c-3 154 -5 176 -22 195 -29 32 -88 29 -115 -5z"/>
<path d="M2391 5394 c-12 -15 -21 -33 -21 -40 0 -19 116 -240 147 -281 18 -26
31 -33 57 -33 40 0 76 35 76 75 0 31 -109 240 -146 280 -32 35 -85 34 -113 -1z"/>
<path d="M3593 5398 c-33 -38 -143 -253 -143 -282 0 -36 41 -76 79 -76 21 0
37 9 56 32 36 42 135 242 135 271 0 66 -84 102 -127 55z"/>
<path d="M1399 5341 c-16 -16 -29 -36 -29 -45 0 -8 -19 -24 -42 -34 -46 -20
-128 -102 -128 -127 0 -52 118 -195 160 -195 13 0 40 -16 61 -35 52 -47 107
-49 150 -6 16 16 29 38 29 49 0 22 -30 52 -68 68 l-27 11 25 7 c33 11 86 61
101 97 9 24 9 33 -6 55 -9 14 -30 33 -46 42 -16 10 -29 25 -29 35 0 27 -27 74
-52 91 -34 24 -66 19 -99 -13z"/>
<path d="M4607 5359 c-22 -13 -47 -61 -47 -93 0 -20 -8 -29 -34 -40 -58 -24
-71 -74 -36 -131 11 -17 35 -40 54 -50 l35 -19 -34 -29 c-40 -33 -43 -54 -15
-90 37 -47 135 -44 161 4 5 10 28 23 50 29 22 6 48 21 57 32 9 12 33 38 53 58
42 42 56 88 38 122 -20 40 -91 107 -121 113 -15 4 -28 13 -28 20 0 8 -14 30
-31 50 -32 36 -66 45 -102 24z"/>
<path d="M4102 4944 c-35 -14 -203 -130 -214 -148 -16 -23 -8 -73 15 -93 51
-46 78 -38 209 57 99 72 118 102 94 148 -20 39 -62 54 -104 36z"/>
<path d="M1931 4924 c-25 -31 -27 -61 -7 -90 18 -25 174 -140 208 -153 45 -17
98 26 98 80 0 34 -34 67 -135 135 -93 63 -131 69 -164 28z"/>
<path d="M2865 4871 c-180 -47 -301 -117 -433 -249 -173 -174 -251 -379 -239
-627 7 -128 24 -199 77 -312 159 -340 500 -531 881 -492 296 30 539 199 680
471 107 209 120 467 33 684 -109 273 -348 478 -621 530 -104 20 -290 17 -378
-5z m111 -256 l64 -34 51 32 c42 25 64 32 118 35 77 3 111 -11 126 -52 9 -28
6 -32 -88 -120 -53 -50 -97 -96 -97 -102 0 -6 11 -24 25 -40 14 -16 25 -31 25
-34 0 -3 -33 -38 -73 -78 l-73 -73 -72 75 c-70 72 -72 75 -72 125 0 29 -7 65
-15 80 -13 27 -110 121 -124 121 -3 0 -12 4 -20 9 -11 7 -10 14 4 39 38 64
124 71 221 17z m-234 -132 c70 -74 71 -98 7 -174 l-38 -46 30 -41 c16 -22 48
-49 72 -60 23 -11 64 -43 91 -70 l49 -50 -24 -29 c-13 -15 -38 -41 -56 -56
-27 -24 -35 -26 -53 -17 -17 9 -27 7 -55 -10 -36 -22 -95 -84 -95 -100 0 -11
59 -71 124 -125 47 -39 47 -40 30 -64 -9 -13 -32 -30 -51 -38 -53 -22 -96 -3
-130 55 -15 26 -57 82 -94 126 -98 112 -125 208 -95 327 20 78 50 123 116 173
61 47 69 61 80 138 8 53 30 98 50 98 3 0 22 -17 42 -37z m727 1 c15 -19 21
-41 21 -77 0 -49 2 -52 70 -117 97 -93 115 -135 115 -270 0 -89 -4 -111 -23
-148 -19 -35 -72 -83 -92 -82 -3 0 -20 23 -39 50 -38 56 -104 120 -125 120 -7
0 -19 -6 -25 -14 -16 -19 -3 -44 54 -107 52 -59 70 -114 55 -168 -11 -42 -50
-81 -81 -81 -24 0 -89 57 -89 78 0 9 18 34 39 57 68 70 68 71 -64 199 l-117
114 43 51 c24 28 57 56 74 63 40 16 125 96 125 117 0 10 -20 41 -45 70 -25 29
-45 57 -45 63 0 17 95 108 113 108 8 0 25 -12 36 -26z m-329 -638 c38 -38 70
-75 70 -83 0 -8 -7 -28 -16 -45 -23 -44 -12 -67 61 -136 74 -71 85 -108 40
-138 -41 -27 -134 -15 -190 24 -25 18 -50 32 -55 32 -5 0 -31 -14 -59 -31 -65
-41 -139 -50 -188 -24 -46 25 -40 51 22 95 66 47 125 107 125 128 0 10 -12 35
-26 56 l-26 38 78 79 c43 44 82 78 86 77 4 -2 39 -34 78 -72z"/>
<path d="M1483 4518 c-61 -16 -63 -25 -63 -310 0 -156 4 -268 11 -285 20 -53
61 -102 105 -123 l44 -22 2 -600 3 -600 33 -29 c45 -41 94 -40 133 2 l29 31 0
604 0 604 33 13 c17 8 44 27 60 42 49 50 57 103 57 367 0 294 -4 308 -99 308
-75 0 -75 0 -81 -262 l-5 -233 -72 -3 -73 -3 0 229 c0 224 0 229 -22 249 -29
26 -55 32 -95 21z"/>
<path d="M4387 4499 c-84 -20 -175 -93 -226 -182 -29 -52 -61 -171 -61 -227 0
-138 75 -267 186 -320 l44 -20 0 -581 0 -581 34 -34 c27 -27 42 -34 73 -34 40
0 73 21 92 57 8 15 11 194 11 601 l0 580 24 6 c42 10 127 97 154 156 33 74 40
192 18 277 -51 202 -206 336 -349 302z"/>
<path d="M1018 3663 c-27 -7 -43 -58 -28 -92 19 -46 50 -53 223 -49 136 3 158
5 176 22 27 25 28 79 1 106 -19 19 -32 20 -187 19 -93 -1 -175 -3 -185 -6z"/>
<path d="M4740 3663 c-47 -19 -54 -90 -13 -123 26 -20 37 -21 181 -18 148 3
155 4 173 27 25 30 24 72 -1 99 -20 21 -29 22 -173 21 -84 0 -159 -3 -167 -6z"/>
<path d="M2150 3272 c-91 -61 -181 -136 -186 -156 -13 -53 49 -115 102 -102
29 8 200 141 215 167 24 45 -21 109 -75 108 -17 0 -42 -8 -56 -17z"/>
<path d="M3885 3278 c-54 -29 -62 -94 -16 -137 52 -49 182 -131 207 -131 28 0
73 40 75 67 4 51 -14 72 -121 147 -83 58 -115 70 -145 54z"/>
<path d="M2537 2898 c-29 -30 -135 -227 -143 -267 -8 -37 15 -77 52 -91 48
-19 77 9 148 144 80 151 85 191 25 221 -39 20 -56 19 -82 -7z"/>
<path d="M3449 2891 c-16 -16 -29 -38 -29 -49 0 -22 101 -221 137 -269 20 -27
31 -33 62 -33 45 0 74 27 74 69 0 32 -106 249 -140 287 -30 33 -68 31 -104 -5z"/>
<path d="M2996 2859 l-26 -20 0 -173 c0 -166 1 -173 23 -194 39 -37 72 -38
107 -4 l30 30 0 157 c0 157 -5 186 -39 212 -24 19 -65 15 -95 -8z"/>
<path d="M2885 1228 c-65 -18 -95 -63 -95 -141 0 -101 47 -157 131 -157 36 0
55 6 76 24 27 24 28 27 28 125 0 89 -2 103 -21 121 -26 27 -80 39 -119 28z"/>
<path d="M5073 1206 c-27 -24 -28 -27 -28 -126 0 -99 1 -102 28 -126 21 -18
40 -24 74 -24 112 0 175 114 124 227 -23 50 -62 73 -125 73 -33 0 -52 -6 -73
-24z"/>
<path d="M1425 1221 c-52 -24 -79 -71 -79 -136 0 -61 24 -109 67 -135 91 -56
209 14 211 125 3 117 -100 193 -199 146z"/>
<path d="M2145 1221 c-52 -24 -78 -69 -78 -135 -1 -62 22 -110 66 -136 74 -46
170 -10 203 76 15 40 16 52 5 93 -15 56 -53 98 -100 111 -47 13 -49 13 -96 -9z"/>
</g>
</svg>
