<?xml version="1.0" encoding="UTF-8"?>
<svg version="1.1" viewBox="0 0 2048 746" width="1280" height="1280" xmlns="http://www.w3.org/2000/svg">
<path transform="translate(0)" d="m0 0h2048v746h-2048z" fill="#FCFCFC"/>
<path transform="translate(393,102)" d="m0 0h13l14 2 6 3 4 5-2 14v8l-3 9-1 1 1 41 3 13 9 16 7 10 5 11 6 19 4 18 4 31 2 25 1 23v21l7-4 13-11 10-9 11-10 10-7 12-5h9l6 4 3 3 1 3v9l-4 8-9 11-13 11-18 13-8 6-4 2 2 4 8 7 2 3v14l-4 13-6 8-12 14-6 8-1 2v12l1 6v17l-4 6-5 4-11 5-18 5-9 2-10 10-7 8-7 9-5 8-14 6-5 1h-16l-18-4-15-6-12-7-11-8-17 4-7 1-72-1-22-3-37-6-9-3-4-8-7-21-4-19-1-7v-22l3-27 6-36 8-35 5-32 1-9v-28l-8-36-1-21-1-2v-7l8-20 4-6 6-4 17-3h82l54 1 41-1 7-10 2-6v-22l-2-10-5-8-1-3v-11l3-9 5-5 11-4z" fill="#15191E"/>
<path transform="translate(251,250)" d="m0 0 11 1 19 1h48l17-1 5 12 11 27 11 26 11 25 5 18 7 39v5l-18 13-8 5-28 20-20 14-16 11-2 1v3l6-2 16-12 17-12 2 1-7 7-11 9-30 27-7 7-1 10v8l-5 20-3 7h-27l-22-1 2-10 6-23 3-21v-6h-4v11l-5 25-6 23-4 2-5-1 3-10 7-23 3-16h-3l-5 22-6 16-5 9h-4l2-10 5-21 2-15h-4v8l-5 22-4 14-4 2-6-2 3-10 9-28 1-6h-3l-3 11-8 24-4 8-16-2-4-1 1-5 7-22-2-2-5 12-6 16-7-1-1-2 7-20 9-31 6-30 1-11v-40l-3-28-4-59-3-15-4-13-2-17v-9l8 1h10l26-3z" fill="#FDFDFD"/>
<path transform="translate(1171,59)" d="m0 0h8l9 5 4 5 2 4v15l-3 12-2 4-1 14-4 17-8 24v4l-2 5 1 2-5 11-6 22-1 6-2 3h-3l1 5-2 10-1 4-2 3h-2v2h-2l1 3v7l-3 8-5 2-1 2 4 1-1 2h-2v3h-2l1 6h-2l1 3-3 6h-4v5l-2 3 3 2-2 4-1 4-4 6 1 2-4 5-2 2v4l-2 3-2 7-4 5-1 6-4 5v6l1 2 2 13 7 17 1 3 7 2 6 1 22-6h2l-1-7 5-8 9-3v2h2v-3l5-4 5-1 5 1 5-3 4 1 5-3v-3l5-2 10-9 4-3 7-45 5-29 9-43 8-31 5-13 6-5 8 1 6 4 2 3-1 7-4 13-4 17-10 37-5 25-4 23-6 36-1 3h7l-3 3 12-3 13-5h3v2h2v-3l15-3 3 1-7 2-9 2h7l13-4 14-3h7l2-12 4-22 1-13 7-39 4-17-1-7 2-3 4-18 1-9 4-16 5-22 4-9 4-16 8-22 3-4 7-1h7l6 2 3 7-1 5-7 6-10 30-11 44-8 37-13 80-2 16 12-3h3v-2l-4-1 5-1h17l11 4 2 3-1 7-2 2-5 1-36 1-3 1-3 13-11 82-6 45-3 25-2 14-4 11-6 4h-9l-11-3-5-5v-8l4-9 4 2 1 3h3l1-9 4-26 6-46 10-64 4-27-18 2-30 5-25 5h-4l-7 54-1 13-3 6-1 6-2-4v35l-4 1-4-5-3-9-1-7v-42l3-34 1-6-10 4-3 1v2l3 1-6 7-7 6-10 6-9 7-24 10-6-1-2 1-11-1-11-4-10-9-7-11-6-12v-2l-3 3-9 15-9 11-9 8-11 6-5 2h-10l-8-6-5-4-3-9v-11l5-25 1-3-8 2 4 1v2l-14 6-7 1-4 2-4-2-4 5-19 4-4 2-10 16-8 11-7 7-9 4-7 1-7-3-6-4-6-9-2-8v-15l4-14 4-10-4 2-2 5-4 1 3-6-4 1-1 5-3 3-13 3-8-1-2 5-10 2-11 3-4 5-14 21-5 6-7 5-10 3-6-1-8-5-6-7-3-8-1-6v-9l4-16 6-11 4-5v-7l3-10 6-7 9-4 10-1 10 2 10 5 5 5 5 8 1 9-2 8v3l35-10 21-8h2l2-8 4-6 6-5 9-3h8l12 3 9 6 5 6 3 7v12l-1 6 35-10 20-8 5-4 6-8 9-8 9-3h12l5 2v12l-4 10-5 7h-3l-1-8v-10l-3 1-7 14-8 19-4 14-1 6v9l5-3 10-9 10-11 12-17 6-9v-17l3-31 4-26 9-43 8-33 10-34 11-31 12-29 12-25 5-9z" fill="#1B456D"/>
<path transform="translate(1679,45)" d="m0 0 5 1 9 6v2h2l5 8 1 3v20l-4 24-6 27-9 29-12 33-5 11-4 11-3 5-4 12-6 12-4 10-4 8-8 15-2 6-12 21-5 6h-2l-2 4-6 9-3 2-3 7-4 15 5-3 7-8 14-11 9-6 8-3 5-1h16l8 4 6 7 3 9-1 16-5 16-14 29-8 12-9 11-9 8-12 7-11-2-8-4-5-5-2-3 1-12 5-15 6-11 10-15 4-5 2 1-9 19-5 17-1 6v11h3l2-4 10-9 8-9 9-14 7-14 5-15 3-16v-11l-6 2-9 5-10 8-10 10-7 6-9 11-2 2-2 5-5 5h-2l-4 17-3 19 1 3-4 15-3 12-2 21-3 1-9-3-12-9-2-3 1-17 6-31 8-35 1-2-7 4-13 11-13 9-12 6-12 3-11-2-8-6-5-8-4-10-1-6-14 11-14 13-11 9-10 7-17 8-8-1-6-4-5-7-3-10v-20l6-20 12-36 5-5 4 1 5 4 1 5-5 21-12 34-4 20 9-3 16-10 13-10 11-10 11-9 11-10 7-5 8 7 5 4 1 3-1 7v17l3 1h10l12-5 26-18 10-8 6-4v-2l-3-3 10-9 4-3 2-8 3-10 3-7 3-14 7-27 17-68 11-35 14-38 9-20 12-24 14-23 8-10 2-2z" fill="#1B466D"/>
<path transform="translate(873,148)" d="m0 0h17l11 4 4 6 1 7-6 8-15 10-10 7-10 8-11 7-13 9-18 11-5 4-5 3-16 11-11 9-11 8-10 9-8 10-3 3-4 2-2 5-11 9-3 5-5 4 13-2 21-5 18-2h18l13 3 5 5-8 4-5 4-39 7-37 10-18 6-6 23-4 12-4 17-2 5v3l-7 19-3 17-5 18-7 34-4 13-6 12-2 2-6-1-1-5 1-16 1-10 2-2 2 2v-11l-1 6h-1v-11l2-5h2l1-4 3-13v-3h-2l-1 2 1-8 1 3 2-1 7-25h-2l-4 16-2 3 1-9 10-40 2-3-1 12-1 4 2-3 2-1-1-1v-10l3-7 6-12 1-3-2-2 3-1 3 1v-7h-4l-3 4-13-1-6-4-4-5v-8l6-5 21-7 4-5 3-6 5-2-1-3 6-18-1-2h3l2-14 1-4h-2v-3l4-1 2-12 3-4-1-4 2-6 3-11 9-25 3-11-13 2h-13l-4-4-8-4-1-5 10-4 34-7 9-4 1-1h11l24-5 39-6 32-3z" fill="#1C466E"/>
<path transform="translate(401,147)" d="m0 0h13l1 26v14l-13 10-3 2-1 3 7-3 7-5h2l1-3 2 2 1 10-8 7-5 3h-2l1 4 5-2 9-7 4-1 1 5-4 5-14 9 1 3 12-7 6-5 4 1 2 5-5 5-14 9-5 3v2l5-1 10-6 11-8 3 1 2 7-14 10-12 6v3l19-10 9-5 3 5-1 3-13 9-16 8h-3l1 4 6-2 17-9 9-6h2l2 5v7l-24 13-5 3h-2v3l5-1 18-10 7-4h3v9l-16 10-14 7-6 2v2l7-1 23-12 8-4 1 6-4 4-27 14-6 3h-2v5l17-8 21-12 2 1v7l-18 13-14 8-11 4v2l8-1 14-7 10-7 10-6h2l1 8-19 11-19 10-1 3 5-1 30-16 4-1 1 4-3 5-16 11-16 8-6 1v4l13-4 18-10 7-5h3l2 25v6l-7 4-5 4-16 8-10 6-10 7-5 1-6-33-7-24-11-27-13-30-8-21-2-9 11-2 4-4 2-5v-20l-4-13-5-9v-5l5-7 2-9v-29z" fill="#FDFDFD"/>
<path transform="translate(425,394)" d="m0 0 2 1-29 29-7 8-10 10-10 8-1 4 4-2 17-16 17-17 8-7 12-12h2l-1 6-13 13-9 11-11 11-6 8-14 10-14 9-17 13-13 11-6 5-1 3 6-2 10-8 13-11 16-12 14-10 25-17 4-1 5 27 6 40 3 1-5-36-5-29v-8h4l5 14 3 14 2 16 1 15 2 7 2 2-8 10-12 14-12 13-6 7-3 5-10 5-6 2h-18l-15-4-18-8-10-7-5-5-4-5-10-19-2-10 7-8 11-9 10-9 11-9 11-10 17-13 20-20 18-13 15-10z" fill="#FCFCFC"/>
<path transform="translate(893,156)" d="m0 0 5 1-1 4-4 5-12 9-10 7-19 12-17 11-3 5-11 6-8 6-16 11-5 6-12 6-32 24-14 12-5 4h-2l2-9 9-25 12-31 9-26 7-13 12-4 96-16 5-3z" fill="#FDFDFD"/>
<path transform="translate(186,201)" d="m0 0h46l124 1 5 6 4 10v16l-2 2-1-7-2-2-1 18-4-1 1-20-3-1-2 19h-5l-1-1v-21l-2 1-3 21-6 2h-17l-1-1v-24h-4v22l-2 5h-5l1-25-3 1-1 5-1 14-2 5h-6l3-15v-8h-2l-5 21h-3l1-21-3 3-3 17h-6v-22l-3-1-2 23h-7l1-12v-14l-2-1-1 3-1 14-3 9-6-1 1-16h-3l-3 16-3 1-2-1v-16l-2 1-2 17-1 3h-7l1-21-3 1-3 19-5 1 1-23h-4l-1 19-5 1v-19h-3l-2 18-1 1h-6l1-19h-4l-1 14-2 7h-8l1-9v-11l-2-11-5-10v-2z" fill="#FDFDFD"/>
<path transform="translate(1684,60)" d="m0 0h2v12l-5 30-7 26-12 36-6 16-5 11-15 35-8 18-8 16-11 21-9 15-2-1 9-42 14-56 9-30 9-26 11-26 12-23 12-19 8-11z" fill="#FDFDFD"/>
<path transform="translate(1176,80)" d="m0 0h2v9l-12 52-8 27-5 16 1 5 1 3h-4l-3 13h-2l-2 9-10 27-6 17-1 3 3 1-6 4-7 17-4 7h-1v-9l4-23 4-21 12-48 5-15 6-20 10-26 6-17 8-16 6-11z" fill="#FDFDFD"/>
<path transform="translate(452,391)" d="m0 0 10 3 16 7 16 12-1 13-3 10-4 6-6 5-9 11-7 8-2-1-6-31-2-7v-4l4 1 3 5 4 17h3l-2-12v-5l7 4 5 3-2-5-5-5-4-3v-3l5 2v-10l-3 2h-3l-2-10-5-1-1-6-3-1v18h-2l-1-3z" fill="#FDFDFD"/>
<path transform="translate(434,417)" d="m0 0 14 3 2 7 6 26 3 15 1 4-10 14-11 12-2 1-2-12-3-28-4-18-4-10 1-5 3-4h2l2 16 6 33 2 13 1 2 3 1-4-28-5-26-1-7z" fill="#FDFDFD"/>
<path transform="translate(170,396)" d="m0 0 2 1v18l-5 3-8 11-12 18-1 3 5-2 10-15 9-12h2l-1 14-8 9-7 8-11 11-4 7 1 4h2l2-4 8-10 8-8 7-8 1 3-3 7-9 9-7 8-9 10v5l5-4 9-11 10-10 2 1-3 6-8 8-9 11-5 5h-2l-2-7-1-21 2-21 2-7 11-16 15-22z" fill="#FDFDFD"/>
<path transform="translate(533,335)" d="m0 0 5 1v7l-5 10-9 9-17 13-18 13-6 4-6-1-7-4 1-4 8-8 10-8 13-11 16-14 11-6z" fill="#FDFDFD"/>
<path transform="translate(1669,61)" d="m0 0 1 3-6 11-8 16-3 5-10 19-8 18-6 20-6 17-7 23-2 9-3 1-1 6-5 17-4 16-2-1 1-9 16-59 11-32 12-29 11-22 14-23z" fill="#FDFDFD"/>
<path transform="translate(961,326)" d="m0 0 4 1 3 6v8l-4 14-3 4-6 1-15-3-1-4 4-4 1-9 3-5 10-7z" fill="#FDFDFD"/>
<path transform="translate(847,326)" d="m0 0h3l3 6v12l-5 14-4 2-16-2-3-2 1-5 3-4v-6l4-6 5-4z" fill="#FDFDFD"/>
<path transform="translate(817,363)" d="m0 0 4 1 14 7 4 1-1 4-8 11-5 6-11 6h-3l-2-6v-10l5-15z" fill="#FDFDFD"/>
<path transform="translate(931,363)" d="m0 0 4 1 14 7 5 2-4 7-8 10-7 6-6 2h-4l-1-2v-14l4-12z" fill="#FDFDFD"/>
<path transform="translate(1370,113)" d="m0 0 1 3-9 30-13 56-6 31-4 22-4 27-5 32-3 12-2 1 2-21 6-38 3-17 8-44 12-51 9-31z" fill="#FDFDFD"/>
<path transform="translate(162,205)" d="m0 0 5 1 6 7 3 9v18l-2 5-4-1v-9l1-8-1-3-4-1-4 4-4 11-2 17h-2l-1-5v-13l2-9 1-14 3-7z" fill="#FDFDFD"/>
<path transform="translate(388,112)" d="m0 0h20l10 2-1 3-13 4-12 2h-20l-2-3v-4l9-3z" fill="#FDFDFD"/>
<path transform="translate(417,127)" d="m0 0h1v9l-13 2-12 1h-23l-5-5v-4l13 2 18-1z" fill="#FDFDFD"/>
<path transform="translate(168,375)" d="m0 0h1l1 5v10l-6 7-12 18-7 10h-1v-7l3-10 7-11 9-14z" fill="#FDFDFD"/>
<path transform="translate(380,398)" d="m0 0h3l-1 5-7 6-10 7-19 14-18 14-12 9-3-3 5-5 19-14 21-16 14-10z" fill="#151B23"/>
<path transform="translate(397,451)" d="m0 0 4 1 4 21 4 36v18l-4-1-4-40-4-29z" fill="#151D26"/>
<path transform="translate(345,267)" d="m0 0 1 4-4 9-6 10-11 12-8 7-10 10-7 8-3-1 1-4 15-15 7-8 10-11 6-9 6-10z" fill="#151A21"/>
<path transform="translate(1243,251)" d="m0 0h1v7l-12 68-3 16-3 3v-9l3-25v-4h2l3-18 6-29z" fill="#FDFDFD"/>
<path transform="translate(1832,585)" d="m0 0 6 1 4 5 2 6v15l-3 10-1-3 1-9v-13l-4-9-7 1-9 7-2 10-5 16-1-3 4-17-2 2-12 27 6-1-3 5-4-1-1-5 7-19 7-12 1-12h3l1 6 9-6z" fill="#19446C"/>
<path transform="translate(378,466)" d="m0 0 4 1 1 3 3 39v17l-1 4h-4l-2-41-1-11z" fill="#151D27"/>
<path transform="translate(1204,575)" d="m0 0 2 2-5 17-4 21-1 8 10 1v1l-11 1-3 24-3 18h-6l3-8 6-34-9 1v-1l9-2 7-37 3-10z" fill="#19446C"/>
<path transform="translate(374,390)" d="m0 0h5l-2 4-12 10-14 11-14 12-13 9-3-1 2-4 12-10 16-12 18-14z" fill="#151A22"/>
<path transform="translate(1595,596)" d="m0 0 3 1-2 12-3 25v19l1 8 3-1 7-16 7-15 8-18 5-9 1 3-8 16-11 27-5 13-3 3-5-2-3-9v-19l2-22z" fill="#19446C"/>
<path transform="translate(1890,588)" d="m0 0h1l-1 11-3 18-2 3-14 2 2-6 8-15 8-12z" fill="#FDFDFD"/>
<path transform="translate(344,288)" d="m0 0 3 1-4 8-11 12-14 14-8 7-5 4h-4l1-4 13-12 8-7 9-9 9-11z" fill="#151D26"/>
<path transform="translate(1556,600)" d="m0 0h3l-2 10-5 14 9-2h8l-1 2-17 3-5 10-3 9-1 6h10l14-4-2 4-12 4h-9l-3-6 1-8 4-11v-4l-3-3 6 1 3-10z" fill="#19446C"/>
<path transform="translate(1236,600)" d="m0 0h3l-1 9-4 11v3l5-1h10l-3 3-15 2-7 18-1 6 1 1h8l15-4-1 3-13 5h-9l-3-4v-8l5-13v-4l-3-1v-2h5l4-10z" fill="#19446C"/>
<path transform="translate(1653,599)" d="m0 0 3 1v6l-6 17 16-1-3 3-15 2-7 17-1 9 13-2 6-2h5l-2 3-12 4h-9l-3-3v-9l6-18h-4v-2h5l4-9z" fill="#19446C"/>
<path transform="translate(388,465)" d="m0 0 4 1 2 13 4 37v13h-4l-4-40z" fill="#151D26"/>
<path transform="translate(1434,575)" d="m0 0h2l-3 11-4 17-3 19-1 2h11v1l-11 1-3 24-3 18h-6l3-6 6-36-2-1 2-1 6-31 4-15z" fill="#19446C"/>
<path transform="translate(406,454)" d="m0 0 5 5 6 37 1 16-4 2-5-35-3-17z" fill="#151D27"/>
<path transform="translate(441,421)" d="m0 0 4 2 4 16 5 24v8l-4-1-3-9-6-34z" fill="#151C25"/>
<path transform="translate(1491,588)" d="m0 0h3l-1 6-21 41-6 15-5 15-2 8-1 9h-2v-7l5-19 8-21 18-36 2-5-6 5-7 9-2-1 11-13 3-3h2z" fill="#19446C"/>
<path transform="translate(1949,588)" d="m0 0h3l-3 9-12 22-10 21-7 19-4 16-1 7h-2l2-16 8-24 14-29 10-19-5 3-9 11v-3l9-11z" fill="#19446C"/>
<path transform="translate(1708,581)" d="m0 0h14l2 2h-10l-18 6-4 2-5 6-1-4 2-2-23 3-19 4h-4l1-3 28-6 19-2z" fill="#19446C"/>
<path transform="translate(1789,587)" d="m0 0 2 1-3 9-14 27-7 14-7 18-5 19v8l-3-3 1-9 5-17 6-15 9-20 6-11 7-14-8 7-5 5 2-4 9-11z" fill="#19446C"/>
<path transform="translate(348,301)" d="m0 0h2l-1 5-8 10-12 13-11 9-5 1 1-4 14-13 3-3h2l2-4z" fill="#151C25"/>
<path transform="translate(264,487)" d="m0 0h1l-1 12-5 26-3 8-4 1 1-9 7-32 2-5z" fill="#151C24"/>
<path transform="translate(453,342)" d="m0 0h1v5l-9 8-27 14-7 1-1-4 16-6 14-8z" fill="#151A22"/>
<path transform="translate(370,470)" d="m0 0h3l1 5 1 32-1 5-4-1-1-7v-33z" fill="#16212D"/>
<path transform="translate(355,314)" d="m0 0 2 1-1 5-7 8-9 9-13 10-4-1v-2l9-7 5-5z" fill="#151C24"/>
<path transform="translate(1300,585)" d="m0 0 3 1v10l-5 23 4 1h-4l-2 16v24l2 8-3-3-2-6v-23l3-22 5-26h-2l-2 5-4 4 2-5z" fill="#19446C"/>
<path transform="translate(248,493)" d="m0 0 3 1v9l-5 27-3 7-3 1-1-5 5-21z" fill="#151B23"/>
<path transform="translate(449,359)" d="m0 0h2v4l-8 6-24 10-3 2h-4v-4l14-7 16-7z" fill="#151B23"/>
<path transform="translate(1890,585)" d="m0 0h3v12l-4 21 4 2-4 1-2 10-1 11v17l2 8h-2l-2-5-1-6v-14l3-21h-6v-1l5-1 3-13 2-17-1-2z" fill="#19446C"/>
<path transform="translate(1386,588)" d="m0 0 2 2-9 24-13 41-3 9-2 1 1-8 6-21 2-1 8-28 6-17z" fill="#19446C"/>
<path transform="translate(194,492)" d="m0 0h2l1 3-3 12-9 20-5 4-1-4 11-25z" fill="#151D27"/>
<path transform="translate(1178,592)" d="m0 0h3l-2 10-5 26 3 1-3 1-4 21h-1v-10l1-10-10 4-4-1 14-5 2-9 5-27z" fill="#19446C"/>
<path transform="translate(1643,213)" d="m0 0 1 3-7 19-9 21-8 15-6 11-2 2 1-5 9-20 8-16z" fill="#FDFDFD"/>
<path transform="translate(270,499)" d="m0 0 3 1-1 10-6 24-5 1 2-11 6-24z" fill="#151E28"/>
<path transform="translate(167,359)" d="m0 0 2 2-1 7-9 14-9 15-2 1 2-10 7-13 9-14z" fill="#FDFDFD"/>
<path transform="translate(280,502)" d="m0 0h3v7l-6 27-4 1v-8l4-18z" fill="#151D26"/>
<path transform="translate(360,326)" d="m0 0h3l-1 5-11 10-8 7-5 4h-4l1-4 9-8 10-8z" fill="#151C24"/>
<path transform="translate(1816,627)" d="m0 0v3l-7 12-3 9v8l6-2 6-4 6-5 1 3-5 5-7 5-6 1-4-4v-10l5-12z" fill="#19446C"/>
<path transform="translate(1280,619)" d="m0 0 1 2h9v1l-10 2-6 14-7 20h-3l3-11 5-12 4-9-7 1-10 1-2-3 11-1 11-3z" fill="#19446C"/>
<path transform="translate(1324,338)" d="m0 0h2l-1 12-9 63-2 1 2-18 4-32 2-18z" fill="#FDFDFD"/>
<path transform="translate(1631,254)" d="m0 0 1 4-4 10-12 22-10 18-1-4 8-16 5-7 8-18z" fill="#FDFDFD"/>
<path transform="translate(1581,588)" d="m0 0h15l-1 2-33 5-13 3h-5v-2l15-4 14-3z" fill="#19446C"/>
<path transform="translate(1705,598)" d="m0 0h2l-2 9-8 22h8v2l6 2 1 2-10-3-18-3v-2h10l10-28z" fill="#19446C"/>
<path transform="translate(1224,356)" d="m0 0h2l-2 25-3 29-2 1v-17l3-28z" fill="#FDFDFD"/>
<path transform="translate(1639,217)" d="m0 0h2l-1 5-12 27-10 21h-2l1-6 9-19 7-14z" fill="#184168"/>
<path transform="translate(1264,588)" d="m0 0h12v2l-34 5-12 3h-5v-2l15-4 14-3z" fill="#19446C"/>
<path transform="translate(1409,591)" d="m0 0h2l-1 8-4 18-5 30h-1v-10l1-6-3-1 3-2 6-35z" fill="#19446C"/>
<path transform="translate(465,493)" d="m0 0h2v8l-5 5-10 5-6 1v-2l8-6 8-7z" fill="#FDFDFD"/>
<path transform="translate(161,479)" d="m0 0 1 2-6 10-8 10 2 8-4 2-3-8 1-5 4-1 2-5 9-11z" fill="#FDFDFD"/>
<path transform="translate(1653,368)" d="m0 0h2l-1 6-11 23-10 16-5 6-1-2 12-20 11-20z" fill="#FDFDFD"/>
<path transform="translate(1459,588)" d="m0 0h2l-3 18v14l2 2 5-4 7-8 2-1-2 5-5 7-4 3h-5l-3-6v-12l3-16z" fill="#19446C"/>
<path transform="translate(333,276)" d="m0 0 2 2-5 8-12 11h-5l1-4 11-9 6-7z" fill="#151A21"/>
<path transform="translate(1694,631)" d="m0 0h4v2l-4 4-8 28-3 2 2-11 5-17v-3l-3-2 1-2z" fill="#19446C"/>
<path transform="translate(1340,584)" d="m0 0 2 2-5 16-7 18-5 13-1-4 14-41z" fill="#19446C"/>
<path transform="translate(527,343)" d="m0 0 4 1-1 7-6 5-5-2-1-3 3-5 2-2z" fill="#151A20"/>
<path transform="translate(663,474)" d="m0 0h2v7l-2 5-3 22-3 2-1-1 1-13z" fill="#FDFDFD"/>
<path transform="translate(362,340)" d="m0 0h3l-1 4-10 10-6 4-4-2 15-14z" fill="#151D26"/>
<path transform="translate(1623,330)" d="m0 0v3l-10 8-13 13-1 2h-2l-1 3h-2l2-5 11-12 12-10z" fill="#FDFDFD"/>
<path transform="translate(1323,633)" d="m0 0 1 3-6 19h3l8-1-2 2-10 4-8 5h-2v-3l5-3h2l3-10z" fill="#19446C"/>
<path transform="translate(415,185)" d="m0 0h1v6l-5 5-9 6h-4l1-4 12-9z" fill="#151E28"/>
<path transform="translate(1269,337)" d="m0 0h8l-3 3-17 4-11 3h-4l1-3 11-2 7-3 4-1z" fill="#FDFDFD"/>
<path transform="translate(369,351)" d="m0 0 2 1-2 5-11 9-4 1 1-5 10-8z" fill="#151E28"/>
<path transform="translate(333,220)" d="m0 0h4v16l-1 3h-4v-9z" fill="#151A21"/>
<path transform="translate(1867,626)" d="m0 0 1 3-10 28-3 1 2-9 5-13z" fill="#19446C"/>
<path transform="translate(1875,610)" d="m0 0 1 2-4 9h8v1l-9 2-3 2-10 1-9 1-1-3 16-2 5-2z" fill="#19446C"/>
<path transform="translate(455,395)" d="m0 0 4 2-1 18-4-2v-17z" fill="#15181D"/>
<path transform="translate(324,224)" d="m0 0h4v12l-3 5h-2v-15z" fill="#16212E"/>
<path transform="translate(1648,214)" d="m0 0 1 3-7 18-7 14h-1v-5l5-10 7-16z" fill="#FDFDFD"/>
<path transform="translate(1363,594)" d="m0 0 4 1-13 5-9 3h-4l1-3 11-4z" fill="#19446C"/>
<path transform="translate(1755,588)" d="m0 0h2l-1 9-2 11-1 13-2-2v-12l3-15z" fill="#19446C"/>
<path transform="translate(464,482)" d="m0 0 2 1v8l-6 1-7 8-2-1 12-16z" fill="#F9FAFA"/>
<path transform="translate(671,410)" d="m0 0h2l-2 11-4 14-3 1 2-10 4-14z" fill="#FDFDFD"/>
<path transform="translate(751,269)" d="m0 0 3 1-6 5-4 5-3 1-1 2h-2l-1 3h-4l1-3 10-8z" fill="#FDFDFD"/>
<path transform="translate(411,167)" d="m0 0h2l-1 5-4 5-5 2-3-3 6-4z" fill="#151F2B"/>
<path transform="translate(437,393)" d="m0 0h5v9l-1 11-2-1v-15l-3-1-2 3-1-3 1-2z" fill="#FDFDFD"/>
<path transform="translate(1772,606)" d="m0 0v3l-9 12-6 4-2-2 7-6 7-8z" fill="#19446C"/>
<path transform="translate(1250,221)" d="m0 0 1 3-5 25h-3l2-10 4-16z" fill="#FDFDFD"/>
<path transform="translate(1639,228)" d="m0 0 2 1-3 9-3 6-2 6-3 2 1-5z" fill="#19446C"/>
<path transform="translate(428,412)" d="m0 0 2 1-2 6-13 11-2 1 2-4 12-13z" fill="#FDFDFD"/>
<path transform="translate(723,249)" d="m0 0 2 1-5 15-1 5h-4v-4l3-3 2-7z" fill="#FDFDFD"/>
<path transform="translate(1916,588)" d="m0 0h2l-1 8-3 15-2 2 1-13z" fill="#19446C"/>
<path transform="translate(320,273)" d="m0 0h3l-1 5-5 4h-5l2-4z" fill="#151A21"/>
<path transform="translate(406,156)" d="m0 0 3 1-2 4-6 5h-2l1-5 4-4z" fill="#162330"/>
<path transform="translate(1655,185)" d="m0 0 1 2-4 12-5 10-2 1 3-9 5-12z" fill="#FDFDFD"/>
<path transform="translate(1930,609)" d="m0 0v3l-6 9-4 3-4-1 7-6z" fill="#19446C"/>
<path transform="translate(446,396)" d="m0 0h2v18h-3v-10z" fill="#FDFDFD"/>
<path transform="translate(409,178)" d="m0 0 2 2-5 5-6 3 1-5 3-3z" fill="#16202C"/>
<path transform="translate(1460,365)" d="m0 0 1 3-4 6-5 1 1-5z" fill="#FDFDFD"/>
<path transform="translate(454,372)" d="m0 0h2l-2 5-4 3h-6l1-3z" fill="#FDFDFD"/>
<path transform="translate(1589,344)" d="m0 0 2 1-5 17-2 1v-7l4-11z" fill="#FDFDFD"/>
<path transform="translate(1639,217)" d="m0 0h2l-1 5-6 14h-2l1-5z" fill="#183F64"/>
<path transform="translate(1106,284)" d="m0 0h2v9l-3 10h-1l1-14z" fill="#FDFDFD"/>
<path transform="translate(678,378)" d="m0 0 2 3v7l3-1-1 3h-4l-1 4-2-1z" fill="#FDFDFD"/>
<path transform="translate(163,319)" d="m0 0h2l-1 7-3 9h-1l1-10z" fill="#FDFDFD"/>
<path transform="translate(167,346)" d="m0 0h1v10h-5l1-5z" fill="#FDFDFD"/>
<path transform="translate(1644,574)" d="m0 0 3 1v2l-6 3-6 7-1-2 8-10z" fill="#19446C"/>
<path transform="translate(470,412)" d="m0 0h2v10l-3-1-1-7z" fill="#15171B"/>
<path transform="translate(1577,358)" d="m0 0 1 2-4 10-3-1 2-6z" fill="#FDFDFD"/>
<path transform="translate(466,414)" d="m0 0h2l1 6h-2l-1 2-4-4 1-3z" fill="#204A70"/>
<path transform="translate(715,272)" d="m0 0 2 3-5 11h-2l3-11z" fill="#FDFDFD"/>
<path transform="translate(675,395)" d="m0 0 2 1-2 10-3 3-1-2 3-7z" fill="#FDFDFD"/>
<path transform="translate(1658,190)" d="m0 0 1 4-4 10-1 2h-2l3-9z" fill="#FDFDFD"/>
<path transform="translate(1358,318)" d="m0 0 10 1-1 3h-7z" fill="#FDFDFD"/>
<path transform="translate(1634,240)" d="m0 0h2l-2 9-4 3 1-5z" fill="#173755"/>
</svg>
